<?xml version="1.0" encoding="UTF-8" standalone="no"?>
<!-- Created with Inkscape (http://www.inkscape.org/) -->

<svg
   version="1.1"
   id="svg1"
   width="1024"
   height="1024"
   viewBox="0 0 1024 1024"
   sodipodi:docname="Kore-1ACC.svg"
   inkscape:version="1.3.2 (091e20e, 2023-11-25, custom)"
   xmlns:inkscape="http://www.inkscape.org/namespaces/inkscape"
   xmlns:sodipodi="http://sodipodi.sourceforge.net/DTD/sodipodi-0.dtd"
   xmlns="http://www.w3.org/2000/svg"
   xmlns:svg="http://www.w3.org/2000/svg">
  <defs
     id="defs1" />
  <sodipodi:namedview
     id="namedview1"
     pagecolor="#ffffff"
     bordercolor="#000000"
     borderopacity="0.25"
     inkscape:showpageshadow="2"
     inkscape:pageopacity="0.0"
     inkscape:pagecheckerboard="0"
     inkscape:deskcolor="#d1d1d1"
     inkscape:zoom="0.37939453"
     inkscape:cx="788.09781"
     inkscape:cy="503.43372"
     inkscape:window-width="1554"
     inkscape:window-height="1020"
     inkscape:window-x="2976"
     inkscape:window-y="179"
     inkscape:window-maximized="0"
     inkscape:current-layer="g1" />
  <g
     inkscape:groupmode="layer"
     inkscape:label="Image"
     id="g1">
    <path
       id="path1"
       style="fill:#32c97c;fill-opacity:1;stroke:none"
       d="M 516.83984 124.70508 L 501.43555 124.78711 L 496.49414 126.26953 L 490.31641 127.83594 L 482.73828 130.71875 L 191.12695 300.39062 L 180.41211 306.56445 L 173.88867 311.10742 L 168.99609 315.65039 L 162.58789 324.15234 L 158.51172 332.30664 L 156.41602 341.39258 L 156.32812 697.69531 L 157.31836 702.35352 L 158.7168 706.25586 L 160.66797 711.58594 L 164.83203 718.63281 L 170.59766 725.56445 L 179.74219 732.61133 L 487.0625 915.68555 L 497.64648 918.81641 L 503.57812 920.0918 L 516.55078 919.8457 L 525.36328 917.49805 L 532.61328 914.82031 L 701.58984 816.7207 L 719.79492 805.84766 L 738.69727 795.18164 L 750.14648 787.85156 L 764.47852 779.61328 L 775.88672 773.06641 L 786.55273 766.9707 L 798.41406 760.0918 L 811.96484 751.77344 L 823.70117 744.60742 L 833.75 738.96484 L 839.88672 735.83594 L 848.08203 729.74023 L 852.32422 725.86914 L 855.16602 722.57422 L 858.13086 718.41406 L 860.89062 713.55469 L 862.94922 707.66602 L 864.10352 703.30078 L 865.05078 698.48047 L 864.76172 394.70703 L 863.9375 391.82422 L 862.37305 389.84766 L 860.10742 387.78906 L 857.51367 386.96484 L 853.18945 387.08789 L 686.80664 487.00195 L 681.43164 490.15234 L 675.80859 493.50781 L 670.68164 498.96484 L 668.66406 502.85742 L 667.3457 506.66602 L 667.30469 548.3457 L 668.08789 551.20703 L 671.95898 556.47852 L 675.83008 558.94922 L 677.84766 559.95898 L 682.37891 559.91797 L 684.12891 559.09375 L 797.69336 490.70703 L 802.03906 487.94922 L 803.25391 488.50391 L 802.94531 675.33594 L 801.79102 679.41211 L 799.9375 682.66602 L 767.48633 702.59961 L 522.58398 846.1875 L 517.80664 848.69922 L 514.65625 850.08008 L 507.28516 850.05859 L 504.1543 848.14453 L 334.47656 748.31445 L 306.67773 732.70508 L 303.58789 731.01758 L 303.46484 729.78125 L 306.96484 727.63867 L 396.70508 675.60352 L 403.68555 671.36133 L 411.55273 666.31641 L 416.96875 662.21875 L 419.48047 658.7793 L 421.78711 655.14453 L 422.9082 652.20117 L 424.09375 648.92578 L 424.1875 303.53516 L 421.04297 299.3125 L 418.07227 296.69141 L 415.77148 295.29297 L 412.71484 294.1875 L 405.59375 294.1582 L 402.87109 295.11914 L 373.83594 312.50391 L 368.24609 316 L 363.00391 320.94922 L 360.44141 325.95898 L 359.80469 616.1543 L 358.89844 620.31445 L 356.79883 623.32031 L 262.28125 680.89648 L 249.84375 687.97852 L 245.10742 690.24414 L 241.52344 691.76758 L 235.7168 691.68555 L 232.875 690.61523 L 229.62109 689.21484 L 226.32812 686.99023 L 222.94922 683.4082 L 221.06445 679.31836 L 220.55664 367.9082 L 221.18164 365.82617 L 222.62109 361.47266 L 226.03906 357.04492 L 229.45312 354.55664 L 498.75977 197.72461 L 503.57812 194.55273 L 506.95508 193.40039 L 512.02148 193.48242 L 514.65625 194.71875 L 556.54102 219.42773 L 753.44141 336.34961 L 481.0918 498.9043 L 472.20898 504.26953 L 465.74414 509.42383 L 458.92969 518.30664 L 456.62891 523.37305 L 456.59961 536.97266 L 457.88086 539.59375 L 461.49219 545.67969 L 467.43359 551.65039 L 696.73633 689.74414 L 699.82227 690.67578 L 708.03516 690.50195 L 750.66992 666.33008 L 754.62891 662.77734 L 756.02734 660.44922 L 756.08594 652.52734 L 754.16406 649.49805 L 750.68164 645.76562 L 618.86523 568.77344 L 572.38672 541.40039 L 549.6582 528.41211 L 548.75586 527.33398 L 549.23633 526.31445 L 551.41992 524.85938 L 718.46094 427.47656 L 827.66602 363.4082 L 839.54883 356.65234 L 848.48828 350.47852 L 851.69141 346.95508 L 854.37109 342.5 L 855.79688 339.55859 L 856.4375 335.45312 L 856.4668 329.80273 L 854.80664 323.91992 L 853.70117 321.64844 L 851.48828 318.27148 L 847.17773 312.50391 L 843.01758 309.29297 L 823.76367 298.17773 L 774.14062 269.05469 L 716.18945 235.91602 L 701.80273 226.83008 L 682.81641 216.51953 L 667.08984 207.08398 L 656.25781 200.5625 L 639.7168 191.24219 L 590.55859 162.92383 L 546.99219 137.31055 L 545.27539 136.37695 L 543.78906 135.33008 L 541.78125 134.19336 L 539.90234 133.10742 L 538.21289 132.24219 L 536.31836 131.17188 L 534.38281 130.22461 L 531.91211 129.11133 L 528.98828 128.04102 L 525.65234 127.01172 L 522.19336 126.1875 L 516.83984 124.70508 z " />
  </g>
</svg>
